<svg width="860" height="620" viewBox="0 0 860 620" xmlns="http://www.w3.org/2000/svg" font-family="Inter,Segoe UI,sans-serif">
<rect width="860" height="620" fill="#0d1117"/>
<g transform="translate(28,26)">
<rect x="0" y="2" width="24" height="5" rx="2.5" fill="#3dd7cf"/>
<rect x="10" y="11" width="14" height="5" rx="2.5" fill="#3a4759"/>
<rect x="0" y="20" width="24" height="5" rx="2.5" fill="#9d8cf5"/>
<text x="34" y="14" fill="#e8eef6" font-size="18" font-weight="700">SyncBridge</text>
<text x="34" y="30" fill="#5a6b82" font-size="11" font-family="monospace">rsync · rclone · local-to-local</text>
<g transform="translate(472,0)">
<rect x="0" y="0" width="64" height="26" rx="7" fill="none" stroke="#263041"/><text x="32" y="17" fill="#8b9bb0" font-size="12" text-anchor="middle">🇫🇷 FR</text>
<rect x="74" y="0" width="120" height="26" rx="13" fill="none" stroke="#263041"/><text x="84" y="17" fill="#5a6b82" font-size="11" font-family="monospace">engines</text><text x="150" y="17" fill="#54cd8a" font-size="11" font-family="monospace">rsync·rclone</text>
<rect x="204" y="0" width="70" height="26" rx="7" fill="#1b232f" stroke="#263041"/><text x="239" y="17" fill="#e8eef6" font-size="12" text-anchor="middle">⤵ Import</text>
<rect x="282" y="0" width="82" height="26" rx="7" fill="#3dd7cf"/><text x="323" y="17" fill="#042927" font-size="12" font-weight="700" text-anchor="middle">+ New job</text>
</g></g>
<line x1="0" y1="74" x2="860" y2="74" stroke="#263041"/>
<text x="28" y="100" fill="#8b9bb0" font-size="12" font-family="monospace" letter-spacing="1">SYNC JOBS</text>
<line x1="120" y1="96" x2="832" y2="96" stroke="#263041"/>
<g transform="translate(28,116)">
<rect x="0" y="0" width="804" height="86" rx="9" fill="#151b24" stroke="#263041"/>
<circle cx="22" cy="26" r="5" fill="#54cd8a"/>
<text x="40" y="24" fill="#e8eef6" font-size="15" font-weight="600">Photos → NAS backup</text>
<rect x="40" y="34" width="268" height="22" rx="5" fill="#1b232f" stroke="#263041"/>
<text x="48" y="49" fill="#8b9bb0" font-size="12" font-family="monospace">/mnt/photos → /mnt/nas/backup/photos</text>
<rect x="40" y="62" width="56" height="18" rx="5" fill="none" stroke="#e9b455" stroke-opacity="0.5"/>
<text x="68" y="74" fill="#e9b455" font-size="10.5" font-family="monospace" text-anchor="middle">mirror</text>
<rect x="103.4" y="62" width="101" height="18" rx="5" fill="none" stroke="#3dd7cf" stroke-opacity="0.5"/>
<text x="154" y="74" fill="#3dd7cf" font-size="10.5" font-family="monospace" text-anchor="middle">every day 2am</text>
<rect x="211.60000000000002" y="62" width="50" height="18" rx="5" fill="none" stroke="#5a6b82" stroke-opacity="0.5"/>
<text x="237" y="74" fill="#5a6b82" font-size="10.5" font-family="monospace" text-anchor="middle">rsync</text>
<rect x="726" y="14" width="62" height="24" rx="6" fill="#3dd7cf"/><text x="757" y="30" fill="#042927" font-size="12" font-weight="700" text-anchor="middle">▶ Run</text>
<rect x="686" y="14" width="30" height="24" rx="6" fill="none" stroke="#263041"/><text x="701" y="31" fill="#8b9bb0" font-size="12" text-anchor="middle">✎</text>
<rect x="652" y="14" width="30" height="24" rx="6" fill="none" stroke="#263041"/><text x="667" y="31" fill="#8b9bb0" font-size="12" text-anchor="middle">⧉</text>
<rect x="618" y="14" width="30" height="24" rx="6" fill="none" stroke="#263041"/><text x="633" y="31" fill="#8b9bb0" font-size="12" text-anchor="middle">🗑</text>
<text x="40" y="74" fill="#5a6b82" font-size="11" font-family="monospace">last: 2026-03-14 02:00  ·  status: ok</text>
</g>
<g transform="translate(28,214)">
<rect x="0" y="0" width="804" height="86" rx="9" fill="#151b24" stroke="#263041"/>
<circle cx="22" cy="26" r="5" fill="#54cd8a"/>
<text x="40" y="24" fill="#e8eef6" font-size="15" font-weight="600">Nightly Docker cleanup</text>
<rect x="40" y="34" width="261" height="22" rx="5" fill="#1b232f" stroke="#263041"/>
<text x="48" y="49" fill="#8b9bb0" font-size="12" font-family="monospace">$ docker system prune -af --volumes</text>
<rect x="40" y="62" width="63" height="18" rx="5" fill="none" stroke="#5a6b82" stroke-opacity="0.5"/>
<text x="71" y="74" fill="#5a6b82" font-size="10.5" font-family="monospace" text-anchor="middle">command</text>
<rect x="109.80000000000001" y="62" width="82" height="18" rx="5" fill="none" stroke="#3dd7cf" stroke-opacity="0.5"/>
<text x="151" y="74" fill="#3dd7cf" font-size="10.5" font-family="monospace" text-anchor="middle">Sunday 4am</text>
<rect x="198.8" y="62" width="56" height="18" rx="5" fill="none" stroke="#9d8cf5" stroke-opacity="0.5"/>
<text x="227" y="74" fill="#9d8cf5" font-size="10.5" font-family="monospace" text-anchor="middle">system</text>
<rect x="726" y="14" width="62" height="24" rx="6" fill="#3dd7cf"/><text x="757" y="30" fill="#042927" font-size="12" font-weight="700" text-anchor="middle">▶ Run</text>
<rect x="686" y="14" width="30" height="24" rx="6" fill="none" stroke="#263041"/><text x="701" y="31" fill="#8b9bb0" font-size="12" text-anchor="middle">✎</text>
<rect x="652" y="14" width="30" height="24" rx="6" fill="none" stroke="#263041"/><text x="667" y="31" fill="#8b9bb0" font-size="12" text-anchor="middle">⧉</text>
<rect x="618" y="14" width="30" height="24" rx="6" fill="none" stroke="#263041"/><text x="633" y="31" fill="#8b9bb0" font-size="12" text-anchor="middle">🗑</text>
<text x="40" y="74" fill="#5a6b82" font-size="11" font-family="monospace">last: 2026-03-10 04:00  ·  status: ok</text>
</g>
<g transform="translate(28,312)">
<rect x="0" y="0" width="804" height="96" rx="9" fill="#151b24" stroke="#263041"/>
<circle cx="22" cy="26" r="5" fill="#3dd7cf"/>
<text x="40" y="24" fill="#e8eef6" font-size="15" font-weight="600">Transcribe voice notes</text>
<rect x="40" y="34" width="233" height="22" rx="5" fill="#1b232f" stroke="#263041"/>
<text x="48" y="49" fill="#8b9bb0" font-size="12" font-family="monospace">$ /import/scripts/transcribe.sh</text>
<rect x="40" y="62" width="63" height="18" rx="5" fill="none" stroke="#5a6b82" stroke-opacity="0.5"/>
<text x="71" y="74" fill="#5a6b82" font-size="10.5" font-family="monospace" text-anchor="middle">command</text>
<rect x="109.80000000000001" y="62" width="146" height="18" rx="5" fill="none" stroke="#3dd7cf" stroke-opacity="0.5"/>
<text x="183" y="74" fill="#3dd7cf" font-size="10.5" font-family="monospace" text-anchor="middle">watches *.m4a, *.mp3</text>
<rect x="726" y="14" width="62" height="24" rx="6" fill="#3dd7cf"/><text x="757" y="30" fill="#042927" font-size="12" font-weight="700" text-anchor="middle">▶ Run</text>
<rect x="686" y="14" width="30" height="24" rx="6" fill="none" stroke="#263041"/><text x="701" y="31" fill="#8b9bb0" font-size="12" text-anchor="middle">✎</text>
<rect x="652" y="14" width="30" height="24" rx="6" fill="none" stroke="#263041"/><text x="667" y="31" fill="#8b9bb0" font-size="12" text-anchor="middle">⧉</text>
<rect x="618" y="14" width="30" height="24" rx="6" fill="none" stroke="#263041"/><text x="633" y="31" fill="#8b9bb0" font-size="12" text-anchor="middle">🗑</text>
<text x="40" y="84" fill="#5a6b82" font-size="11" font-family="monospace">running · 12%  ·  ⏱ 4s</text>
<rect x="40" y="88" width="724" height="5" rx="2.5" fill="#1b232f"/>
<rect x="40" y="88" width="90" height="5" rx="2.5" fill="#3dd7cf"/>
</g>
<g transform="translate(28,420)">
<rect x="0" y="0" width="804" height="86" rx="9" fill="#151b24" stroke="#263041"/>
<circle cx="22" cy="26" r="5" fill="#54cd8a"/>
<text x="40" y="24" fill="#e8eef6" font-size="15" font-weight="600">Documents → Paperless consume</text>
<rect x="40" y="34" width="296" height="22" rx="5" fill="#1b232f" stroke="#263041"/>
<text x="48" y="49" fill="#8b9bb0" font-size="12" font-family="monospace">/mnt/cloud/docs → /mnt/paperless/consume</text>
<rect x="40" y="62" width="82" height="18" rx="5" fill="none" stroke="#54cd8a" stroke-opacity="0.5"/>
<text x="81" y="74" fill="#54cd8a" font-size="10.5" font-family="monospace" text-anchor="middle">accumulate</text>
<rect x="129.0" y="62" width="69" height="18" rx="5" fill="none" stroke="#3dd7cf" stroke-opacity="0.5"/>
<text x="164" y="74" fill="#3dd7cf" font-size="10.5" font-family="monospace" text-anchor="middle">constant</text>
<rect x="205.2" y="62" width="50" height="18" rx="5" fill="none" stroke="#5a6b82" stroke-opacity="0.5"/>
<text x="230" y="74" fill="#5a6b82" font-size="10.5" font-family="monospace" text-anchor="middle">rsync</text>
<rect x="726" y="14" width="62" height="24" rx="6" fill="#3dd7cf"/><text x="757" y="30" fill="#042927" font-size="12" font-weight="700" text-anchor="middle">▶ Run</text>
<rect x="686" y="14" width="30" height="24" rx="6" fill="none" stroke="#263041"/><text x="701" y="31" fill="#8b9bb0" font-size="12" text-anchor="middle">✎</text>
<rect x="652" y="14" width="30" height="24" rx="6" fill="none" stroke="#263041"/><text x="667" y="31" fill="#8b9bb0" font-size="12" text-anchor="middle">⧉</text>
<rect x="618" y="14" width="30" height="24" rx="6" fill="none" stroke="#263041"/><text x="633" y="31" fill="#8b9bb0" font-size="12" text-anchor="middle">🗑</text>
<text x="40" y="74" fill="#5a6b82" font-size="11" font-family="monospace">last: 2026-03-14 08:30  ·  status: ok</text>
</g>
<g transform="translate(28,518)" opacity="0.6">
<rect x="0" y="0" width="804" height="86" rx="9" fill="#151b24" stroke="#263041"/>
<circle cx="22" cy="26" r="5" fill="#3a4759"/>
<text x="40" y="24" fill="#e8eef6" font-size="15" font-weight="600">Download video (yt-dlp)  ·  disabled</text>
<rect x="40" y="34" width="310" height="22" rx="5" fill="#1b232f" stroke="#263041"/>
<text x="48" y="49" fill="#8b9bb0" font-size="12" font-family="monospace">$ yt-dlp -o '/mnt/media/%(title)s.%(ext)s'</text>
<rect x="40" y="62" width="63" height="18" rx="5" fill="none" stroke="#5a6b82" stroke-opacity="0.5"/>
<text x="71" y="74" fill="#5a6b82" font-size="10.5" font-family="monospace" text-anchor="middle">command</text>
<rect x="109.80000000000001" y="62" width="56" height="18" rx="5" fill="none" stroke="#3dd7cf" stroke-opacity="0.5"/>
<text x="138" y="74" fill="#3dd7cf" font-size="10.5" font-family="monospace" text-anchor="middle">manual</text>
<rect x="726" y="14" width="62" height="24" rx="6" fill="#3dd7cf"/><text x="757" y="30" fill="#042927" font-size="12" font-weight="700" text-anchor="middle">▶ Run</text>
<rect x="686" y="14" width="30" height="24" rx="6" fill="none" stroke="#263041"/><text x="701" y="31" fill="#8b9bb0" font-size="12" text-anchor="middle">✎</text>
<rect x="652" y="14" width="30" height="24" rx="6" fill="none" stroke="#263041"/><text x="667" y="31" fill="#8b9bb0" font-size="12" text-anchor="middle">⧉</text>
<rect x="618" y="14" width="30" height="24" rx="6" fill="none" stroke="#263041"/><text x="633" y="31" fill="#8b9bb0" font-size="12" text-anchor="middle">🗑</text>
<text x="40" y="74" fill="#5a6b82" font-size="11" font-family="monospace">last: never  ·  status: —</text>
</g>
</svg>